<?xml version="1.0" encoding="UTF-8" standalone="no"?>
<svg
   id="SVGRoot"
   version="1.1"
   viewBox="0 0 256 256"
   sodipodi:docname="Logo.svg"
   inkscape:version="1.1.2 (0a00cf5339, 2022-02-04)"
   xmlns:inkscape="http://www.inkscape.org/namespaces/inkscape"
   xmlns:sodipodi="http://sodipodi.sourceforge.net/DTD/sodipodi-0.dtd"
   xmlns="http://www.w3.org/2000/svg"
   xmlns:svg="http://www.w3.org/2000/svg">
  <defs
     id="defs38" />
  <sodipodi:namedview
     id="namedview36"
     pagecolor="#ffffff"
     bordercolor="#000000"
     borderopacity="0.25"
     inkscape:pageshadow="2"
     inkscape:pageopacity="0.0"
     inkscape:pagecheckerboard="0"
     showgrid="false"
     inkscape:zoom="0.70100996"
     inkscape:cx="324.53177"
     inkscape:cy="240.36748"
     inkscape:window-width="1503"
     inkscape:window-height="938"
     inkscape:window-x="0"
     inkscape:window-y="0"
     inkscape:window-maximized="1"
     inkscape:current-layer="g1505" />
  <rect
     width="256"
     height="256"
     rx="64"
     ry="64"
     fill="#ffffff"
     id="rect25"
     x="0"
     y="0"
     style="fill:#fff;fill-opacity:1" />
  <g
     id="g1505"
     transform="matrix(1.6666667,0,0,1.6666667,-85.333338,-81.979524)">
    <path
       d="m 80,103.98771 h 28 v 0 c 0,-2.2091 1.7909,-3.999996 4,-3.999996 h 36 v 0 c 15.464,0 28,-12.536 28,-28 v 0 h -28 -40 v 0 c -15.464,0 -28,12.536 -28,28 z"
       fill="#009689"
       id="path1291"
       style="fill:#009689;fill-opacity:1" />
    <path
       d="m 80,107.98771 h 28 v 0 c 0,2.2091 1.7909,4 4,4 h 36 v 0 c 15.464,0 28,12.536 28,28 v 4 h -28 v 0 c 0,-2.2091 -1.7909,-4 -4,-4 h -36 v 0 c -15.464,0 -28,-12.536 -28,-28 z"
       fill="#00786F"
       id="path1293"
       style="fill:#00786F;fill-opacity:1" />
    <path
       d="m 176,147.98771 h -28 v 0 c 0,2.2091 -1.7909,4 -4,4 h -36 v 0 c -15.464,0 -28,12.536 -28,28 v 0 h 28 40 v 0 c 15.464,0 28,-12.536 28,-28 z"
       fill="#005F5A"
       id="path1295"
       style="fill:#005F5A;fill-opacity:1" />
  </g>
</svg>
